<svg xmlns="http://www.w3.org/2000/svg" viewBox="0 0 424.12 102.74"><defs><style>.cls-1{fill:#464d8f;}.cls-2{fill:#ca3346;}.cls-3{fill:#a40f2f;}.cls-4{fill:#4c4d8c;}</style></defs><title>Recurso 7</title><g id="Capa_2" data-name="Capa 2"><g id="Capa_1-2" data-name="Capa 1"><path class="cls-1" d="M116.75,52.63V0H137.1Q150.36,0,157,7.88a27.48,27.48,0,0,1,6.59,18.19q0,11.79-7.07,19.18t-18.37,7.38Zm16.15-12.1h4.2q4,0,6.76-3.89T146.62,26a19.2,19.2,0,0,0-2.45-9.91A7.76,7.76,0,0,0,137.1,12h-4.2Z"/><path class="cls-1" d="M213.66,40.07V52.63H174.08V0h39.58V12.16H189.92v7.63h19.19V31.47H189.92v8.59Z"/><path class="cls-1" d="M260.65,39.72V52.63H223.77V0h16.15v39.7Z"/><path class="cls-1" d="M286.14,0V52.63H270V0Z"/><path class="cls-1" d="M339.53,40.22V52.63H295.75V42.57L319.06,12.2H297.52V0H338.8V10.23l-22.64,30Z"/><path class="cls-1" d="M365.29,0V52.63H349.14V0Z"/><path class="cls-1" d="M407.18,52.63l-3-10.37H390.12L387,52.63H373.85L390.09,0h17.07l16.5,52.61ZM392.86,30.78h8.51l-4.26-15.26Z"/><path class="cls-2" d="M123.79,90.69l-4.46,10.95h-2.16l13.95-34.39L145,101.64h-2.16l-4.46-10.95Zm7.33-18.05-6.53,16.07h13Z"/><path class="cls-2" d="M155.62,99.65h8.48v2H153.5V68.36h2.12Z"/><path class="cls-2" d="M174.73,70.34v12.1h13.42v2H174.73V99.65H188.5v2H172.61V68.36H188.5v2Z"/><path class="cls-2" d="M215.08,73.83a7.6,7.6,0,0,0-6.75-3.93,6.26,6.26,0,0,0-6.27,6.36c0,3.49,3.31,4.94,6,6.22l6.36,3.31a7.27,7.27,0,0,1,3.8,6.62c0,5.52-5,9.67-10.42,9.67a10.28,10.28,0,0,1-9.8-7.15l1.85-.84c1.41,3.53,4,6,8,6a8.1,8.1,0,0,0,8.21-7.86c0-3.75-3.84-5.34-6.71-6.75l-6-3.18a6.67,6.67,0,0,1-3.44-6,8.14,8.14,0,0,1,8.52-8.43,9.33,9.33,0,0,1,8.12,4.68Z"/><path class="cls-2" d="M243.77,73.83A7.6,7.6,0,0,0,237,69.9a6.26,6.26,0,0,0-6.27,6.36c0,3.49,3.31,4.94,6,6.22l6.36,3.31a7.27,7.27,0,0,1,3.8,6.62c0,5.52-5,9.67-10.42,9.67a10.28,10.28,0,0,1-9.8-7.15l1.85-.84c1.41,3.53,4,6,8,6a8.1,8.1,0,0,0,8.21-7.86c0-3.75-3.84-5.34-6.71-6.75l-6-3.18a6.67,6.67,0,0,1-3.44-6,8.14,8.14,0,0,1,8.52-8.43,9.33,9.33,0,0,1,8.12,4.68Z"/><path class="cls-2" d="M260.31,90.69l-4.46,10.95h-2.16l13.95-34.39,13.91,34.39h-2.16l-4.46-10.95Zm7.33-18.05-6.53,16.07h13Z"/><path class="cls-2" d="M320.08,102.74,292.14,73v28.6H290V67.92L318,97.4v-29h2.12Z"/><path class="cls-2" d="M331.91,68.36h6c4.86,0,8.7.79,12.36,4.19a17.22,17.22,0,0,1,.18,24.68c-3.66,3.53-7.59,4.41-12.54,4.41h-6Zm6,31.3c4.37,0,8-.88,11.17-4a15,15,0,0,0-.4-21.67c-3.18-2.87-6.62-3.62-10.77-3.62H334V99.65Z"/><path class="cls-2" d="M381.83,101.64H379.4L368.54,85.88h-1.06v15.76h-2.12V68.36h4.15c2.69,0,5.34,0,7.59,1.68a8.36,8.36,0,0,1,3.36,7.15c0,5.78-4,8.78-9.54,8.7ZM370.18,83.9c2.07,0,4.15-.09,5.83-1.55a6.66,6.66,0,0,0,2.34-5.25,6.36,6.36,0,0,0-3.53-6c-1.77-.84-4-.75-6-.75h-1.37V83.9Z"/><path class="cls-2" d="M424.12,85a17.26,17.26,0,1,1-17.26-17.08A17.33,17.33,0,0,1,424.12,85Zm-32.4,0a15.14,15.14,0,1,0,15.14-15.1A15.24,15.24,0,0,0,391.72,85Z"/><polygon class="cls-3" points="38.84 19.42 0 101.64 77.67 62.8 62.85 31.43 38.84 19.42"/><polygon class="cls-2" points="38.84 19.42 0 0 0 101.64 38.84 19.42"/><polygon class="cls-2" points="62.85 31.43 77.67 62.8 101.64 50.82 62.85 31.43"/><polygon class="cls-4" points="38.84 19.42 62.85 31.43 48.01 0 38.84 19.42"/><polygon class="cls-4" points="0 101.64 96.02 101.64 77.67 62.8 0 101.64"/></g></g></svg>