<?xml version="1.0" encoding="utf-8"?>
<!-- Generator: Adobe Illustrator 19.2.1, SVG Export Plug-In . SVG Version: 6.00 Build 0)  -->
<svg version="1.1" id="layer" xmlns="http://www.w3.org/2000/svg" xmlns:xlink="http://www.w3.org/1999/xlink" x="0px" y="0px"
	 viewBox="0 0 652 652" style="enable-background:new 0 0 652 652;" xml:space="preserve">
<path d="M83,305.2c-2.7,4.2-5.2,8.5-7.4,12.9h-0.3c-2.4-4.2-5-8.3-7.8-12.2l-25.3-35.8H21v102.7h23.3v-53.2c0-2.8,0-6.9-0.2-10.3
	h0.3c2.1,3.5,4.3,6.8,6.8,10l18.9,26.2h10.3l16.6-25.3c1.7-2.6,5.8-8.8,6.7-10.9h0.2c-0.2,3.1-0.2,7.4-0.2,11v52.4h23.3V270.1h-21.3
	L83,305.2z"/>
<path d="M172.4,270l-39.5,102.8h22.9l9.2-24.4h32.7l9.6,24.4h25.2L190.8,270H172.4z M171.5,329.6l6.1-16.5c1.5-4,2.8-8.1,3.7-12.3
	h0.2c0.9,4.3,2.1,8.5,3.7,12.5l5.5,16.1L171.5,329.6L171.5,329.6z"/>
<path d="M356.2,270l-38.4,99.6c-13.9-24.3-22.6-40-27.9-43.1v-0.2c8.9-4.2,17.9-13.3,17.9-26.3c0-16-9.8-29.9-37.5-29.9h-31.6v102.7
	h23.5v-38.5h7.1c3.4,1.4,8.8,11.7,24,38.5h46.4l9.2-24.4h32.6l9.6,24.4h25.2L374.5,270H356.2z M270.7,317.4h-8.6v-27.7h8.8
	c8.4,0,14,5.6,14,13.1C284.8,311.2,278.8,317.4,270.7,317.4 M355.2,329.6l6.1-16.5c1.5-4,2.8-8.1,3.7-12.3h0.2
	c0.9,4.3,2.1,8.5,3.7,12.5l5.5,16.1L355.2,329.6L355.2,329.6z"/>
<polygon points="420,270.1 425.4,288.9 467.1,288.5 416.4,373 502.4,373 502.4,353.7 454.1,354.2 503.4,270.1 "/>
<polygon points="507,270.1 512.6,288.9 554.3,288.5 503.5,373 589.6,373 589.6,353.7 541.3,354.2 590.4,270.1 "/>
<rect x="597.5" y="270.1" width="23.5" height="102.7"/>
</svg>
